<?xml version="1.0" encoding="UTF-8" standalone="no"?>
<svg
   version="1.1"
   id="Layer_1"
   x="0px"
   y="0px"
   width="68"
   viewBox="0 0 68 12"
   enable-background="new 0 0 1200 1200"
   xml:space="preserve"
   sodipodi:docname="logo_transparent.svg"
   inkscape:version="1.3 (0e150ed, 2023-07-21)"
   height="12"
   xmlns:inkscape="http://www.inkscape.org/namespaces/inkscape"
   xmlns:sodipodi="http://sodipodi.sourceforge.net/DTD/sodipodi-0.dtd"
   xmlns="http://www.w3.org/2000/svg"
   xmlns:svg="http://www.w3.org/2000/svg"><defs
   id="defs15" /><sodipodi:namedview
   id="namedview15"
   pagecolor="#505050"
   bordercolor="#eeeeee"
   borderopacity="1"
   inkscape:showpageshadow="0"
   inkscape:pageopacity="0"
   inkscape:pagecheckerboard="0"
   inkscape:deskcolor="#505050"
   inkscape:zoom="8.9001174"
   inkscape:cx="31.96587"
   inkscape:cy="0.84268551"
   inkscape:window-width="1600"
   inkscape:window-height="788"
   inkscape:window-x="209"
   inkscape:window-y="121"
   inkscape:window-maximized="0"
   inkscape:current-layer="Layer_1" />&#10;<path
   fill="#47704C"
   opacity="1"
   stroke="none"
   d="m 818,1201 c -272.66669,0 -544.83334,0 -817,0 C 1,801 1,401 1,1 c 400,0 800,0 1200,0 0,400 0,800 0,1200 -127.5,0 -255,0 -383,0 M 357.87463,715.59741 c 18.8815,10.92737 37.7623,21.85584 56.64457,32.78186 58.37722,33.7793 116.75003,67.56623 175.13839,101.32636 7.88404,4.55841 15.86548,4.52362 23.74658,-0.0371 11.53119,-6.67298 23.01667,-13.42481 34.53028,-20.12824 70.66424,-41.14251 141.24634,-82.42791 212.08575,-123.26672 10.98828,-6.33484 15.04614,-14.9754 15.03394,-26.97668 -0.10004,-98.14649 -0.10907,-196.29322 0.0248,-294.43964 0.0135,-9.87799 -3.78327,-16.70841 -12.35602,-21.59641 -33.56232,-19.13668 -67.00995,-38.47476 -100.4715,-57.78781 -50.33715,-29.05325 -100.63287,-58.17842 -150.99359,-87.19067 -6.98742,-4.02542 -14.2716,-4.20947 -21.41131,-0.0988 -9.23639,5.31792 -18.45111,10.67359 -27.66584,16.02916 -33.54828,19.49823 -67.08926,39.00908 -100.6394,58.50417 -40.46115,23.51086 -80.87372,47.10632 -121.43509,70.44308 -9.31164,5.3574 -13.11963,13.133 -13.11664,23.46259 0.0286,99.31302 0.0435,198.62604 -0.024,297.93909 -0.006,9.09155 3.84958,15.64038 11.5806,20.08081 6.20987,3.56671 12.46509,7.05432 19.32852,10.95489 m 224.0636,191.70612 c -8.19201,-0.65845 -8.91119,-0.0168 -8.93103,8.21545 -0.0244,10.16571 0.0106,20.33154 -0.0298,30.49719 -0.007,1.73139 -0.26245,3.4618 -0.5055,6.45252 -16.77887,-16.21991 -32.62738,-31.54053 -48.47589,-46.86115 -0.47363,0.31818 -0.9472,0.63636 -1.42084,0.95453 -0.18627,1.42414 -0.53234,2.84796 -0.53473,4.27234 -0.0335,19.99805 0.0171,39.99628 -0.0491,59.99414 -0.0135,4.07642 1.42267,6.14789 5.81256,6.19824 4.54492,0.0522 6.26685,-1.89599 6.21662,-6.30908 -0.11939,-10.49756 -0.0524,-20.99768 0.008,-31.4964 0.0107,-1.84155 0.35614,-3.68115 0.61444,-6.17242 18.05975,13.9588 31.38696,31.67169 49.36731,45.85626 0.49456,-2.6427 0.92816,-3.88727 0.93072,-5.13275 0.0417,-20.3313 0.0836,-40.66303 -0.0694,-60.99323 -0.0131,-1.73889 -1.40448,-3.4674 -2.93347,-5.47564 m 34.06171,10.25403 c 0.005,17.63928 0.0872,35.27905 -0.036,52.91742 -0.0325,4.65893 1.7492,6.6878 6.48181,6.55542 6.81738,-0.1908 13.64654,0.0659 20.46606,-0.0801 14.23945,-0.30475 27.62507,-11.07996 30.92975,-24.73926 3.9093,-16.15857 -2.97534,-33.14722 -15.8584,-40.26892 -12.31341,-6.80689 -25.539,-4.80316 -38.58239,-4.53137 -1.11432,0.0233 -2.63117,2.24469 -3.14685,3.72796 -0.57209,1.64569 -0.20923,3.61646 -0.25397,6.41883 M 800.5669,966.0897 c -7.59546,-2.52185 -11.45697,-7.58203 -11.52417,-15.5459 -0.10688,-12.65905 -0.10138,-25.31945 -0.0585,-37.97906 0.0139,-4.08936 -1.98858,-5.57556 -5.89178,-5.56818 -3.77887,0.007 -6.08289,1.17444 -6.06342,5.38318 0.0623,13.49188 -0.39294,27.00311 0.1847,40.47113 0.65234,15.21381 12.55194,25.44068 28.08477,25.11078 15.36866,-0.32642 26.48181,-11.30365 26.65619,-26.59106 0.14435,-12.65815 -0.0429,-25.32001 0.0666,-37.97888 0.0374,-4.31977 -1.4751,-6.43152 -6.10138,-6.42542 -4.74676,0.006 -5.97247,2.39362 -5.94073,6.58514 0.0931,12.32599 0.0705,24.65357 -0.002,36.97992 -0.0653,11.055 -7.67352,17.42603 -19.40997,15.55835 M 475.14282,925.3562 c -2.88482,-6.76703 -5.76962,-13.53406 -9.04776,-21.22369 -1.36099,1.8479 -1.96005,2.41668 -2.26611,3.11407 -3.48016,7.93018 -6.94855,15.86585 -10.35565,23.82758 -5.83161,13.62726 -11.58283,27.289 -17.44626,40.9024 -1.4895,3.45825 -0.56375,4.6482 3.1915,5.08966 6.32007,0.74298 7.86572,-3.46838 9.61294,-7.98846 3.06574,-7.93091 3.34512,-8.04285 11.59485,-8.07416 2.66614,-0.0101 5.33231,-0.006 7.99847,-0.002 9.16434,0.0142 9.40281,-0.0618 12.29432,8.86853 1.69848,5.24585 4.4786,7.69384 10.15176,7.19018 5.40485,-0.4798 5.90622,-0.85919 3.7536,-5.94904 -6.3573,-15.03228 -12.78012,-30.0368 -19.48166,-45.75494 m 266.357,19.64801 c -5.68348,-13.31464 -11.36695,-26.62927 -17.05042,-39.94391 -0.57989,0.0737 -1.15979,0.14734 -1.73968,0.22095 -1.6587,3.74207 -3.35895,7.46643 -4.96912,11.22931 -7.86255,18.37415 -15.74231,36.74127 -23.4635,55.1748 -0.56867,1.35767 -0.58295,3.95832 0.26733,4.70783 2.43683,2.14813 8.85932,0.18591 10.34235,-2.85761 1.01935,-2.0921 1.89465,-4.26873 2.65686,-6.46899 1.49939,-4.32837 4.25214,-6.48816 9.02197,-6.10693 3.31128,0.26471 6.66132,0.0375 9.99408,0.0426 9.05353,0.0139 9.05353,0.0166 12.12647,8.49512 2.64538,7.29882 3.42035,7.69043 10.81408,7.53082 4.52564,-0.0977 5.02216,-1.83026 3.33515,-5.61145 -3.79974,-8.51618 -7.35449,-17.14167 -11.33557,-26.41254 m -354.04563,-11.8695 c -3.64462,-2.39264 -6.9126,-5.17603 -5.38669,-10.10993 1.63996,-5.30267 6.26862,-6.2406 10.90741,-5.8338 3.74659,0.32861 7.49491,1.43451 11.073,2.6817 4.27201,1.48914 5.61868,-1.15381 7.11896,-4.13635 1.71335,-3.40607 -0.69247,-4.53241 -3.00824,-5.57221 -6.81,-3.05774 -13.86169,-4.45263 -21.36746,-3.15753 -9.81299,1.69324 -15.85669,7.38709 -17.39484,16.69306 -1.26645,7.66223 2.89331,14.79998 11.39911,19.15295 4.8847,2.49994 9.98373,4.58441 14.84354,7.12854 3.68869,1.93109 5.80136,5.12567 5.00744,9.44952 -0.77453,4.21833 -3.66864,6.52527 -7.76962,7.474 -6.58432,1.52326 -12.51272,-0.47766 -18.20926,-3.45044 -3.55099,-1.85315 -5.17224,0.20929 -6.7381,2.84674 -1.6658,2.80579 -1.39785,4.88239 1.72254,6.52686 7.73007,4.07385 15.89746,6.01562 24.57757,4.89667 9.75818,-1.25782 17.28974,-8.60285 18.56482,-17.63819 1.35053,-9.57006 -3.27994,-17.17724 -13.24566,-21.64862 -3.79401,-1.70227 -7.63758,-3.29394 -12.09452,-5.30297 z"
   id="path1"
   style="fill:#47704c;fill-opacity:0" />&#10;&#10;&#10;&#10;&#10;&#10;&#10;&#10;&#10;&#10;&#10;&#10;&#10;<g
   id="g1"
   transform="matrix(0.1404671,0,0,0.1404671,0.63361582,-0.10339946)"><path
     fill="#364f6b"
     opacity="1"
     stroke="none"
     d="m 221.3102,9.9833562 c 1.14008,1.8707888 2.5315,3.5993038 2.54456,5.3381958 0.15301,20.3302 0.11108,40.661926 0.0694,60.993225 -0.003,1.245483 -0.43615,2.490051 -0.93072,5.132751 -17.98035,-14.18457 -31.30756,-31.897461 -49.36731,-45.856262 -0.2583,2.491272 -0.60376,4.330872 -0.61444,6.172424 -0.0606,10.498719 -0.12757,20.998841 -0.008,31.496399 0.0502,4.413086 -1.67169,6.361267 -6.21661,6.309082 -4.3899,-0.05035 -5.82605,-2.121826 -5.81257,-6.198242 0.0662,-19.997864 0.0156,-39.996094 0.0491,-59.99414 0.002,-1.424378 0.34845,-2.848206 0.53473,-4.2723388 0.47363,-0.318177 0.9472,-0.636353 1.42083,-0.954529 15.84851,15.3206178 31.69703,30.6412348 48.4759,46.8611448 0.24304,-2.990723 0.49859,-4.72113 0.50549,-6.452515 0.0404,-10.165649 0.005,-20.331482 0.0298,-30.497192 0.0198,-8.2322998 0.73902,-8.8739008 9.31995,-8.0780028 z"
     id="path3" /><path
     fill="#364f6b"
     opacity="1"
     stroke="none"
     d="m 254.98324,19.613361 c 0.0445,-2.315796 -0.31836,-4.28656 0.25372,-5.932251 0.51568,-1.483276 2.03253,-3.7047118 3.14685,-3.7279658 13.0434,-0.27179 26.26898,-2.275513 38.5824,4.5313718 12.88305,7.121704 19.7677,24.110351 15.8584,40.268921 -3.30469,13.659301 -16.69031,24.434509 -30.92975,24.739257 -6.81952,0.145935 -13.64868,-0.110717 -20.46607,0.08008 -4.7326,0.132385 -6.51434,-1.896485 -6.48181,-6.55542 0.12323,-17.638367 0.0413,-35.278138 0.0363,-53.403992 m 46.88348,27.11084 c 0.30151,-18.216065 -12.34149,-29.049561 -30.58905,-25.919068 -1.56885,0.269165 -3.9549,2.549439 -3.9881,3.942444 -0.31225,13.113587 -0.31805,26.23999 -0.0291,39.35437 0.0322,1.460877 2.33447,3.984619 3.77313,4.128846 13.87238,1.390869 28.34894,-2.654969 30.83313,-21.506592 z"
     id="path4" /><path
     fill="#364f6b"
     opacity="1"
     stroke="none"
     d="m 439.93593,68.720966 c 11.35053,1.778869 18.95874,-4.592163 19.02405,-15.647156 0.0728,-12.326355 0.0953,-24.653931 0.002,-36.979919 -0.0317,-4.191529 1.19397,-6.5789188 5.94073,-6.5851438 4.62629,-0.0061 6.13874,2.1056508 6.10138,6.4254148 -0.10949,12.658874 0.0778,25.320739 -0.0666,37.978882 -0.17437,15.287414 -11.28753,26.264648 -26.65618,26.591064 -15.53284,0.329895 -27.43244,-9.896973 -28.08478,-25.110779 -0.57764,-13.468017 -0.12238,-26.979248 -0.18469,-40.47113 -0.0195,-4.20874 2.28454,-5.3760988 6.06341,-5.3831788 3.9032,-0.00738 5.9057,1.4788208 5.89179,5.5681758 -0.0428,12.659607 -0.0483,25.320008 0.0585,37.979065 0.0672,7.963867 3.92871,13.024048 11.91009,15.634705 z"
     id="path5" /><path
     fill="#364f6b"
     opacity="1"
     stroke="none"
     d="m 114.27804,28.249958 c 6.54937,15.36676 12.97219,30.371276 19.32949,45.403564 2.15262,5.089844 1.65125,5.469238 -3.7536,5.949036 -5.67315,0.503662 -8.45327,-1.944336 -10.15176,-7.190186 -2.89151,-8.930359 -3.12998,-8.854309 -12.29431,-8.86853 -2.66617,-0.0042 -5.33234,-0.008 -7.998476,0.0021 -8.249726,0.03131 -8.529114,0.14325 -11.594849,8.074158 -1.747223,4.52008 -3.292877,8.731445 -9.612946,7.988464 C 74.44634,79.167133 73.52059,77.977191 75.010092,74.518939 80.873525,60.905536 86.624746,47.243793 92.45635,33.616535 c 3.407105,-7.961731 6.875488,-15.8974 10.35565,-23.8275758 0.30606,-0.697388 0.90512,-1.266174 2.26611,-3.114075 3.27814,7.6896368 6.16294,14.4566648 9.19993,21.5750738 m -12.13904,8.49237 c -2.0636,5.151978 -4.12723,10.303894 -6.638674,16.573853 5.234684,0 9.296474,0.209228 13.296694,-0.193238 0.72012,-0.07239 1.96698,-2.890564 1.62988,-4.051941 -1.19498,-4.116882 -2.84497,-8.123352 -4.64725,-12.021484 -0.3092,-0.668823 -2.2052,-0.604065 -3.64065,-0.30719 z"
     id="path6" /><path
     fill="#364f6b"
     opacity="1"
     stroke="none"
     d="m 380.64614,47.891498 c 3.81781,8.925964 7.37256,17.551453 11.1723,26.067627 1.68701,3.781189 1.19049,5.513733 -3.33514,5.61145 -7.39374,0.159607 -8.1687,-0.231994 -10.81409,-7.530823 -3.07294,-8.478515 -3.07294,-8.481201 -12.12647,-8.495117 -3.33276,-0.0051 -6.6828,0.222107 -9.99407,-0.0426 -4.76984,-0.381226 -7.52259,1.778564 -9.02198,6.106933 -0.7622,2.200257 -1.63751,4.376892 -2.65686,6.468994 -1.48303,3.043519 -7.90552,5.005738 -10.34234,2.857605 -0.85028,-0.749511 -0.836,-3.350158 -0.26734,-4.707824 7.72119,-18.433533 15.60095,-36.800659 23.4635,-55.174805 1.61017,-3.762878 3.31043,-7.487244 4.96912,-11.2293088 0.57989,-0.073608 1.15979,-0.147278 1.73968,-0.220947 5.68348,13.3146358 11.36695,26.6292718 17.21369,40.2888178 m -26.12476,2.92334 c -0.12896,3.743469 2.82489,2.697143 4.6164,2.624451 3.17706,-0.128968 6.33459,-0.806397 9.48474,-1.345459 0.1698,-0.02905 0.39911,-0.969422 0.25848,-1.363404 -1.93884,-5.430114 -3.93786,-10.838806 -5.92212,-16.252746 -0.64087,0.08935 -1.28167,0.178711 -1.92254,0.268127 -2.10035,5.149658 -4.20063,10.299378 -6.51496,16.069031 z"
     id="path7" /><path
     fill="#364f6b"
     opacity="1"
     stroke="none"
     d="m 26.755209,35.860553 c 4.138977,1.825562 7.982544,3.417237 11.77655,5.119507 9.965729,4.471375 14.596191,12.078552 13.245667,21.648621 -1.275086,9.035339 -8.806641,16.380371 -18.56482,17.638183 -8.680115,1.118958 -16.847503,-0.822815 -24.5775754,-4.896667 -3.120392,-1.64447 -3.388337,-3.72107 -1.722535,-6.526856 1.565857,-2.637451 3.1871044,-4.69989 6.7380994,-2.84674 5.696533,2.972778 11.624938,4.973693 18.209259,3.450439 4.100982,-0.94873 6.995086,-3.255676 7.769622,-7.473999 C 40.423391,57.649189 38.31072,54.454608 34.62203,52.523517 29.762228,49.979389 24.663198,47.894916 19.778494,45.394977 11.272695,41.042011 7.1129356,33.904254 8.3793846,26.242023 9.9175316,16.936054 15.961233,11.242206 25.774221,9.5489692 c 7.505768,-1.295105 14.557465,0.099792 21.367462,3.1575318 2.315766,1.039794 4.721589,2.166137 3.00824,5.572204 -1.500275,2.982544 -2.846954,5.625488 -7.118957,4.136353 -3.578095,-1.247193 -7.326416,-2.353089 -11.072998,-2.681702 -4.638794,-0.406799 -9.267457,0.531128 -10.90741,5.833801 -1.52591,4.933899 1.742065,7.717285 5.704651,10.293396 z"
     id="path8" /><path
     fill="#47704C"
     opacity="1"
     stroke="none"
     d="m 301.8279,47.157367 c -2.44537,18.418457 -16.92193,22.464295 -30.79431,21.073426 -1.43866,-0.144227 -3.74091,-2.667969 -3.77313,-4.128846 -0.28894,-13.11438 -0.28314,-26.240783 0.0291,-39.35437 0.0332,-1.393005 2.41925,-3.673279 3.9881,-3.942444 18.24756,-3.130493 30.89056,7.703003 30.55023,26.352234 z"
     id="path12"
     style="fill:#47704c;fill-opacity:0" /><path
     fill="#47704C"
     opacity="1"
     stroke="none"
     d="m 102.27523,36.456867 c 1.29922,-0.01141 3.19522,-0.07617 3.50442,0.592651 1.80228,3.898132 3.45227,7.904602 4.64725,12.021484 0.3371,1.161377 -0.90976,3.979554 -1.62988,4.051941 -4.00022,0.402466 -8.06201,0.193238 -13.296694,0.193238 2.511444,-6.269959 4.575074,-11.421875 6.774904,-16.859314 z"
     id="path13"
     style="fill:#47704c;fill-opacity:0" /><path
     fill="#47704C"
     opacity="1"
     stroke="none"
     d="m 354.62838,50.504901 c 2.20733,-5.459716 4.30761,-10.609436 6.40796,-15.759094 0.64087,-0.08942 1.28167,-0.178772 1.92254,-0.268127 1.98426,5.41394 3.98328,10.822632 5.92212,16.252746 0.14063,0.393982 -0.0887,1.334351 -0.25848,1.363404 -3.15015,0.539062 -6.30768,1.216491 -9.48474,1.345459 -1.79151,0.07269 -4.74536,1.119018 -4.5094,-2.934388 z"
     id="path14"
     style="fill:#47704c;fill-opacity:0" /></g>&#10;&#10;</svg>
